<svg width="16" height="17" viewBox="0 0 16 17" fill="none" xmlns="http://www.w3.org/2000/svg">
<path d="M14.5757 2.44668L8.17684 0.527016C8.08131 0.498338 7.98039 0.492393 7.88215 0.509653C7.7839 0.526913 7.69106 0.566902 7.61102 0.626427C7.53098 0.685951 7.46596 0.763363 7.42116 0.852483C7.37636 0.941602 7.35301 1.03996 7.35299 1.13971V9.799C6.69766 9.21286 5.86102 8.8694 4.98289 8.82601C4.10475 8.78263 3.23833 9.04195 2.52843 9.56063C1.81852 10.0793 1.30814 10.8259 1.08259 11.6757C0.857041 12.5255 0.929983 13.427 1.28923 14.2294C1.64847 15.0319 2.27225 15.6867 3.05632 16.0845C3.84038 16.4823 4.73723 16.599 5.59696 16.415C6.45669 16.231 7.22723 15.7575 7.77979 15.0736C8.33234 14.3897 8.63344 13.5369 8.63276 12.6577V1.99956L14.2078 3.67207C14.2889 3.69848 14.3744 3.70842 14.4594 3.70129C14.5444 3.69417 14.6271 3.67013 14.7026 3.63059C14.7782 3.59105 14.8451 3.53681 14.8994 3.47105C14.9537 3.40529 14.9943 3.32933 15.0188 3.24766C15.0433 3.16598 15.0513 3.08022 15.0422 2.99543C15.0331 2.91064 15.0072 2.82851 14.9659 2.75389C14.9246 2.67927 14.8688 2.61365 14.8018 2.56089C14.7348 2.50814 14.6579 2.4693 14.5757 2.44668ZM4.79343 15.2173C4.2872 15.2173 3.79234 15.0671 3.37142 14.7859C2.9505 14.5046 2.62244 14.1049 2.42871 13.6372C2.23499 13.1695 2.1843 12.6549 2.28306 12.1584C2.38182 11.6618 2.6256 11.2058 2.98356 10.8478C3.34151 10.4899 3.79758 10.2461 4.29409 10.1473C4.79059 10.0486 5.30523 10.0993 5.77293 10.293C6.24063 10.4867 6.64038 10.8148 6.92162 11.2357C7.20287 11.6566 7.35299 12.1515 7.35299 12.6577C7.35299 13.3365 7.08332 13.9876 6.60331 14.4676C6.1233 14.9476 5.47227 15.2173 4.79343 15.2173Z" fill="white"/>
</svg>
