<svg width="33" height="17" viewBox="0 0 33 17" fill="none" xmlns="http://www.w3.org/2000/svg">
    <path
        d="M13.6216 2.44668L7.22274 0.527016C7.1272 0.498338 7.02629 0.492393 6.92805 0.509653C6.8298 0.526913 6.73696 0.566902 6.65692 0.626427C6.57688 0.685951 6.51186 0.763363 6.46706 0.852483C6.42226 0.941602 6.39891 1.03996 6.39888 1.13971V9.799C5.74356 9.21286 4.90692 8.8694 4.02879 8.82601C3.15065 8.78263 2.28423 9.04195 1.57433 9.56063C0.864419 10.0793 0.354041 10.8259 0.12849 11.6757C-0.0970605 12.5255 -0.0241186 13.427 0.335126 14.2294C0.69437 15.0319 1.31815 15.6867 2.10222 16.0845C2.88628 16.4823 3.78312 16.599 4.64286 16.415C5.50259 16.231 6.27313 15.7575 6.82568 15.0736C7.37824 14.3897 7.67934 13.5369 7.67866 12.6577V1.99956L13.2537 3.67207C13.3348 3.69848 13.4203 3.70842 13.5053 3.70129C13.5903 3.69417 13.673 3.67013 13.7485 3.63059C13.8241 3.59105 13.891 3.53681 13.9453 3.47105C13.9996 3.40529 14.0402 3.32933 14.0647 3.24766C14.0892 3.16598 14.0972 3.08022 14.0881 2.99543C14.079 2.91064 14.0531 2.82851 14.0118 2.75389C13.9705 2.67927 13.9147 2.61365 13.8477 2.56089C13.7807 2.50814 13.7038 2.4693 13.6216 2.44668ZM3.83933 15.2173C3.3331 15.2173 2.83824 15.0671 2.41732 14.7859C1.9964 14.5046 1.66834 14.1049 1.47461 13.6372C1.28089 13.1695 1.2302 12.6549 1.32896 12.1584C1.42772 11.6618 1.67149 11.2058 2.02945 10.8478C2.38741 10.4899 2.84348 10.2461 3.33999 10.1473C3.83649 10.0486 4.35113 10.0993 4.81883 10.293C5.28653 10.4867 5.68627 10.8148 5.96752 11.2357C6.24877 11.6566 6.39888 12.1515 6.39888 12.6577C6.39888 13.3365 6.12922 13.9876 5.64921 14.4676C5.1692 14.9476 4.51817 15.2173 3.83933 15.2173Z"
        fill="none" />
    <path
        d="M22.7134 2.44668L16.3145 0.527016C16.219 0.498338 16.1181 0.492393 16.0198 0.509653C15.9216 0.526913 15.8288 0.566902 15.7487 0.626427C15.6687 0.685951 15.6037 0.763363 15.5589 0.852483C15.5141 0.941602 15.4907 1.03996 15.4907 1.13971V9.799C14.8354 9.21286 13.9987 8.8694 13.1206 8.82601C12.2425 8.78263 11.376 9.04195 10.6661 9.56063C9.95622 10.0793 9.44584 10.8259 9.22029 11.6757C8.99474 12.5255 9.06768 13.427 9.42692 14.2294C9.78617 15.0319 10.4099 15.6867 11.194 16.0845C11.9781 16.4823 12.8749 16.599 13.7347 16.415C14.5944 16.231 15.3649 15.7575 15.9175 15.0736C16.47 14.3897 16.7711 13.5369 16.7705 12.6577V1.99956L22.3455 3.67207C22.4266 3.69848 22.5121 3.70842 22.5971 3.70129C22.6821 3.69417 22.7648 3.67013 22.8403 3.63059C22.9159 3.59105 22.9828 3.53681 23.0371 3.47105C23.0914 3.40529 23.132 3.32933 23.1565 3.24766C23.181 3.16598 23.189 3.08022 23.1799 2.99543C23.1708 2.91064 23.1449 2.82851 23.1036 2.75389C23.0623 2.67927 23.0065 2.61365 22.9395 2.56089C22.8725 2.50814 22.7956 2.4693 22.7134 2.44668ZM12.9311 15.2173C12.4249 15.2173 11.93 15.0671 11.5091 14.7859C11.0882 14.5046 10.7601 14.1049 10.5664 13.6372C10.3727 13.1695 10.322 12.6549 10.4208 12.1584C10.5195 11.6618 10.7633 11.2058 11.1213 10.8478C11.4792 10.4899 11.9353 10.2461 12.4318 10.1473C12.9283 10.0486 13.4429 10.0993 13.9106 10.293C14.3783 10.4867 14.7781 10.8148 15.0593 11.2357C15.3406 11.6566 15.4907 12.1515 15.4907 12.6577C15.4907 13.3365 15.221 13.9876 14.741 14.4676C14.261 14.9476 13.61 15.2173 12.9311 15.2173Z"
        fill="none" />
    <path
        d="M31.8052 2.44668L25.4063 0.527016C25.3108 0.498338 25.2099 0.492393 25.1116 0.509653C25.0134 0.526913 24.9205 0.566902 24.8405 0.626427C24.7605 0.685951 24.6955 0.763363 24.6507 0.852483C24.6059 0.941602 24.5825 1.03996 24.5825 1.13971V9.799C23.9272 9.21286 23.0905 8.8694 22.2124 8.82601C21.3342 8.78263 20.4678 9.04195 19.7579 9.56063C19.048 10.0793 18.5376 10.8259 18.3121 11.6757C18.0865 12.5255 18.1595 13.427 18.5187 14.2294C18.878 15.0319 19.5017 15.6867 20.2858 16.0845C21.0699 16.4823 21.9667 16.599 22.8265 16.415C23.6862 16.231 24.4567 15.7575 25.0093 15.0736C25.5618 14.3897 25.8629 13.5369 25.8623 12.6577V1.99956L31.4373 3.67207C31.5184 3.69848 31.6039 3.70842 31.6889 3.70129C31.7739 3.69417 31.8566 3.67013 31.9321 3.63059C32.0077 3.59105 32.0746 3.53681 32.1289 3.47105C32.1832 3.40529 32.2238 3.32933 32.2483 3.24766C32.2728 3.16598 32.2808 3.08022 32.2717 2.99543C32.2626 2.91064 32.2367 2.82851 32.1954 2.75389C32.1541 2.67927 32.0983 2.61365 32.0313 2.56089C31.9643 2.50814 31.8874 2.4693 31.8052 2.44668ZM22.0229 15.2173C21.5167 15.2173 21.0218 15.0671 20.6009 14.7859C20.18 14.5046 19.8519 14.1049 19.6582 13.6372C19.4645 13.1695 19.4138 12.6549 19.5126 12.1584C19.6113 11.6618 19.8551 11.2058 20.213 10.8478C20.571 10.4899 21.0271 10.2461 21.5236 10.1473C22.0201 10.0486 22.5347 10.0993 23.0024 10.293C23.4701 10.4867 23.8699 10.8148 24.1511 11.2357C24.4324 11.6566 24.5825 12.1515 24.5825 12.6577C24.5825 13.3365 24.3128 13.9876 23.8328 14.4676C23.3528 14.9476 22.7018 15.2173 22.0229 15.2173Z"
        fill="none" />
</svg>